<svg id="Capa_1" enable-background="new 0 0 510 510" height="512" viewBox="0 0 510 510" width="512" xmlns="http://www.w3.org/2000/svg"><g><path d="m155 160.154c0-15.249-12.405-27.654-27.654-27.654h-39.692c-15.249 0-27.654 12.405-27.654 27.654v34.692c0 15.249 12.405 27.654 27.654 27.654h39.692c15.249 0 27.654-12.405 27.654-27.654zm-30 32.346h-35v-30h35z"/><path d="m60 252.5h60v30h-60z"/><path d="m150 252.5h60v30h-60z"/><path d="m480 252.5v-16.429c0-37.209-25.534-68.565-60-77.469v-76.014c0-22.104-17.983-40.088-40.088-40.088h-339.824c-22.105 0-40.088 17.983-40.088 40.088v219.824c0 22.105 17.983 40.088 40.088 40.088h249.912v15c0 60.654 49.346 110 110 110s110-49.346 110-110v-105zm-30-16.429v16.429h-100v-16.429c0-27.57 22.43-50 50-50s50 22.43 50 50zm-409.912 76.429c-5.563 0-10.088-4.525-10.088-10.088v-219.824c0-5.563 4.525-10.088 10.088-10.088h339.824c5.562 0 10.088 4.525 10.088 10.088v74.131c-39.407 4.939-70 38.629-70 79.353v16.428h-80v30h50v30zm439.912 45c0 44.112-35.888 80-80 80s-80-35.888-80-80v-75h160z"/><path d="m389.457 393.169 60.578-54.52-20.07-22.298-39.422 35.48-19.937-19.937-21.212 21.212z"/></g></svg>